<?xml version="1.0" encoding="UTF-8"?><svg xmlns="http://www.w3.org/2000/svg" viewBox="0 0 908.68 214.31"><defs><style>.d{fill:#399dfe;}.e{fill:#2051a3;}.f{fill:#43bbfe;}.g{fill:#143683;}.h{fill:#8ed3fe;}.i{fill:#bce5fe;}.j{fill:#2c88fe;}</style></defs><g id="a"/><g id="b"><g id="c"><g><g><path d="M16.69,28.16h17.15l65.91,104.2-2.23,2.41V28.16h18.73V162.86h-17.34L33.19,60.23l2.22-2.41v105.04H16.69V28.16Z"/><path d="M288.69,28.16h20.58l32.35,105.68,32.35-105.68h20.58l-43.94,134.79h-17.99L288.69,28.16Z"/><path d="M442.39,28.16h16.13l49.69,134.79h-20.4l-37.36-108.74-37.36,108.74h-20.4L442.39,28.16Zm-26.79,87.24h70.92v17.99h-70.92v-17.99Z"/><path d="M543.26,162.49c-5.81-1.24-11.23-3.09-16.27-5.56-5.04-2.47-9.75-5.56-14.14-9.27l11.77-14.46c5.13,4.45,10.78,7.79,16.97,10.01,6.18,2.23,12.89,3.34,20.12,3.34,9.76,0,17.34-1.81,22.71-5.42,5.38-3.62,8.07-8.73,8.07-15.34v-.09c0-4.7-1.22-8.42-3.66-11.17-2.44-2.75-5.59-4.79-9.46-6.12-3.86-1.33-8.85-2.55-14.97-3.66-.19-.06-.39-.09-.6-.09s-.42-.03-.6-.09l-1.39-.28c-9.02-1.54-16.36-3.29-22.02-5.24-5.66-1.95-10.49-5.5-14.51-10.66-4.02-5.16-6.03-12.5-6.03-22.02v-.09c0-8.34,1.87-15.47,5.61-21.37,3.74-5.9,9.19-10.4,16.36-13.49,7.17-3.09,15.79-4.64,25.87-4.64,4.82,0,9.56,.53,14.23,1.58,4.67,1.05,9.27,2.61,13.81,4.68,4.54,2.07,9.01,4.68,13.4,7.83l-10.75,15.02c-5.13-3.77-10.24-6.6-15.34-8.48-5.1-1.88-10.21-2.83-15.34-2.83-9.21,0-16.36,1.84-21.46,5.52-5.1,3.68-7.65,8.89-7.65,15.62v.09c0,4.64,1.31,8.28,3.94,10.94,2.63,2.66,5.9,4.62,9.83,5.89,3.92,1.27,9.38,2.58,16.36,3.94,.25,.06,.48,.11,.7,.14,.22,.03,.45,.08,.7,.14,.31,.06,.65,.12,1.02,.19,.37,.06,.71,.12,1.02,.19,8.16,1.67,14.97,3.65,20.44,5.93,5.47,2.29,10.04,5.98,13.72,11.08,3.68,5.1,5.52,12.07,5.52,20.91v.19c0,8.22-1.95,15.25-5.84,21.09-3.89,5.84-9.53,10.29-16.92,13.35-7.39,3.06-16.3,4.59-26.75,4.59-6.49,0-12.64-.62-18.45-1.85Z"/><path d="M736.86,130.88c0,5.3-.75,10.02-2.26,14.15-1.51,4.13-3.65,7.61-6.44,10.44s-6.15,4.98-10.11,6.43c-3.95,1.46-8.38,2.19-13.27,2.19-4.45,0-8.55-.7-12.3-2.09-3.75-1.39-6.99-3.45-9.7-6.17-2.72-2.72-4.83-6.09-6.33-10.11-1.51-4.02-2.26-8.66-2.26-13.91v-54.71c0-.27,.07-.52,.2-.74s.37-.4,.71-.54,.75-.25,1.25-.34,1.15-.13,1.95-.13c.76,0,1.42,.04,1.95,.13s.97,.2,1.28,.34,.54,.31,.67,.54,.2,.47,.2,.74v53.37c0,4.36,.53,8.18,1.58,11.46,1.05,3.28,2.58,6.01,4.58,8.19,2,2.18,4.42,3.82,7.28,4.92,2.85,1.1,6.08,1.65,9.67,1.65s6.88-.53,9.74-1.58c2.85-1.05,5.27-2.66,7.24-4.82s3.49-4.84,4.55-8.05c1.05-3.21,1.58-6.97,1.58-11.29v-53.84c0-.27,.07-.52,.2-.74s.36-.4,.67-.54,.74-.25,1.28-.34,1.19-.13,1.95-.13,1.42,.04,1.95,.13,.97,.2,1.28,.34,.54,.31,.67,.54,.2,.47,.2,.74v53.77Z"/><path d="M822.1,161.6c0,.27-.07,.52-.2,.74s-.36,.4-.67,.54c-.31,.13-.74,.25-1.28,.34-.54,.09-1.19,.13-1.95,.13-.81,0-1.47-.05-1.99-.13-.52-.09-.93-.2-1.25-.34-.31-.13-.54-.31-.67-.54s-.2-.47-.2-.74v-40.63h-43.53v40.63c0,.27-.07,.52-.2,.74s-.36,.4-.67,.54c-.31,.13-.73,.25-1.25,.34-.52,.09-1.18,.13-1.99,.13-.76,0-1.42-.05-1.95-.13-.54-.09-.97-.2-1.28-.34-.31-.13-.54-.31-.67-.54s-.2-.47-.2-.74V77.11c0-.27,.07-.52,.2-.74s.36-.4,.67-.54c.31-.13,.74-.25,1.28-.34s1.19-.13,1.95-.13c.81,0,1.47,.04,1.99,.13,.52,.09,.93,.2,1.25,.34,.31,.13,.54,.31,.67,.54s.2,.47,.2,.74v36.52h43.53v-36.52c0-.27,.07-.52,.2-.74s.36-.4,.67-.54c.31-.13,.73-.25,1.25-.34s1.18-.13,1.99-.13c.76,0,1.42,.04,1.95,.13s.97,.2,1.28,.34c.31,.13,.54,.31,.67,.54s.2,.47,.2,.74v84.5Z"/><path d="M904.64,151.09c0,.49-.02,.94-.07,1.35-.04,.4-.11,.76-.2,1.08-.09,.31-.21,.61-.37,.88s-.45,.62-.88,1.04-1.36,1.12-2.8,2.09c-1.44,.97-3.25,1.92-5.42,2.86-2.18,.94-4.68,1.75-7.51,2.43s-5.95,1.01-9.37,1.01c-5.48,0-10.44-.95-14.89-2.86-4.45-1.91-8.23-4.71-11.35-8.39-3.12-3.68-5.53-8.22-7.21-13.61-1.68-5.39-2.53-11.54-2.53-18.46s.9-13.46,2.7-19.1c1.8-5.64,4.32-10.42,7.58-14.35,3.26-3.93,7.16-6.94,11.72-9.03,4.56-2.09,9.6-3.13,15.13-3.13,2.6,0,5.13,.25,7.58,.74s4.71,1.12,6.77,1.89c2.07,.76,3.92,1.64,5.56,2.63,1.64,.99,2.76,1.79,3.37,2.39,.61,.61,.99,1.04,1.14,1.31s.28,.57,.37,.91c.09,.34,.16,.72,.2,1.15,.04,.43,.07,.91,.07,1.45,0,.63-.03,1.18-.1,1.65-.07,.47-.18,.88-.34,1.21-.16,.34-.35,.6-.57,.78-.23,.18-.5,.27-.81,.27-.63,0-1.52-.46-2.66-1.38-1.15-.92-2.65-1.94-4.52-3.07s-4.14-2.14-6.84-3.07c-2.7-.92-5.91-1.38-9.64-1.38-4.09,0-7.84,.82-11.25,2.46-3.41,1.64-6.35,4.05-8.79,7.24s-4.36,7.12-5.73,11.79c-1.37,4.67-2.06,10.04-2.06,16.1s.63,10.94,1.89,15.43c1.26,4.49,3.08,8.28,5.46,11.35,2.38,3.08,5.32,5.42,8.83,7.04s7.48,2.43,11.93,2.43c3.64,0,6.82-.46,9.54-1.38,2.72-.92,5.04-1.94,6.97-3.07,1.93-1.12,3.51-2.14,4.75-3.07,1.23-.92,2.19-1.38,2.86-1.38,.27,0,.49,.06,.67,.17,.18,.11,.33,.32,.44,.61,.11,.29,.2,.69,.27,1.18,.07,.49,.1,1.1,.1,1.82Z"/></g><g><path class="i" d="M183.83,25.75c8.54-6.22,16.53-13.27,26.21-17.76,13.6-6.31,27.58-11,42.6-5.67,11.4,4.04,18.88,12.21,23.16,23.65,9.26,24.79,5.01,49.04-3.73,72.58-12.24,32.98-31.32,61.32-61.34,80.98-12.79,8.37-26.59,14.29-42.38,12.85-14.7-1.35-24.74-9.6-31.01-22.56-7.85-16.25-7.2-33.35-4.32-50.55,3.36-20.03,11.01-38.46,21.2-55.91,.83-1.43,1.49-2.95,2.23-4.43,4.57,.11,8.16,1.77,9.99,6.26-3.73,7.02-8.27,13.56-11.63,20.83-8.31,18.01-13.42,36.57-10.52,56.56,1.88,12.95,6.59,24.44,18.99,31.08,6.26,3.36,12.97,4.18,19.87,2.85,9.35-1.8,18.24-4.88,26.35-11.09-6.89,3.3-13.45,6.1-20.76,5.93-1.8-.04-4.58,1.3-4.87-2.27,1.54-1.75,3.8-1.85,5.8-2.53,27.04-4.54,44.09-22.53,58.36-43.89,10.36-15.51,17.52-32.5,19.72-51.19,1.85-15.68,.71-31-9.27-44.2-7.16-9.47-17.06-12.79-28.67-11.22-10.07,1.36-19.18,5.18-27.42,11.18,6.67-3.28,13.5-6.02,21.07-5.82,1.81,.05,4.55-1.22,4.95,2.24-3.35,2.6-8.09,.85-11.36,3.68-9.22,2.37-17.65,6.5-25.73,11.44-5.15-2.81-6.53-7.79-7.48-13.02Z"/><path class="f" d="M183.83,25.75c2.92,3.9,3.95,8.87,7.19,12.59,3.57,2.33,4.1,6.57,6.24,9.81,.39,.95,1.04,1.78,1.46,2.72,.98,2.87,3.34,5.19,3.44,8.42-2.85,2.9-5.58,5.97-9.55,7.45-3.55-.39-7.04-1.07-10.42-2.28-1.98-2.84-.93-6.11-1.3-9.18-.07-3.13-.28-6.25-.41-9.37-.09-3.77-.39-7.54-.41-11.31,0-1.84,.17-3.61,1.37-5.11-.66-2.18-.36-4.38-.23-6.59,2.07-.14,1.99,1.68,2.62,2.85Z"/><path class="h" d="M182.17,55.17c.12,3.07,.24,6.14,.36,9.2-.2,3.03-1.64,5.31-4.17,6.94-.96,.26-1.87,.03-2.76-.34-3.19-2.13-7.16-3.13-9.53-6.48-2.99-2.23-6.21-4.07-9.62-5.58-2.74-1.75-5.48-3.51-9.12-5.83,5.23,.16,9.47,.29,13.71,.42,4.4-1.77,8.87-.07,13.3-.26,2.68,.33,5.48,.21,7.82,1.92Z"/><path class="i" d="M174.54,54.12c-4.53,.56-9.01-.08-13.49-.61,5.61-9.02,12.16-17.24,20.4-24.02,.11,5.51,.22,11.03,.34,16.54-1.42,3.58-3.92,6.21-7.24,8.09Z"/><path class="e" d="M228.37,23.21c-9.19-2.07-17.28,1.36-25.21,5.23-1.54,.75-2.93,1.38-4.74,1.4,0-.5-.19-1.2,.02-1.37,8.16-6.33,17.04-10.83,27.36-13,9.37-1.98,17.86-1.21,25.98,3.73,6.39,3.89,10.36,9.75,13.13,16.54,8.52,20.84,5.35,41.38-2.41,61.43-9.87,25.49-25.28,46.93-48.44,62.19-7.19,4.74-15.48,6.35-23.66,8.26-16.84,2.41-25.15-11.65-27.86-23.53-.57-2.49-1.15-5.18-.5-7.83,4.37-1.37,8.44,.5,11,5.46,1.96,3.8,3.74,7.71,5.53,11.62,.3-2.73-.98-5.74,1.5-8.05,1.05-.41,1.99-.04,2.82,.52,8.82,5.88,17.57,3.61,26.01-.61,10.94-5.46,19.29-14.04,26.53-23.72,12.86-17.22,20.38-36.4,21.16-58.06,.13-3.67-.26-7.29-.45-10.94,.41-2.48,2.03-4.37,3.28-6.76-1.61,.3-3.04,1.45-4.57,.46-1.28-1.17-1.64-2.85-2.34-4.33-4.18-8.92-10.77-14.91-20.56-17.09-1.28-.28-2.63-.46-3.57-1.54Z"/><path class="e" d="M196.36,49.42c-1.78-3.69-3.55-7.39-5.33-11.08,7.37-6.66,16.3-9.94,25.8-12.02,11.83-5.4,24.73,2.76,29.6,13.68,.61,1.37,1.04,2.79,1.42,4.23,2.19,6.63-1.21,11.86-4.46,16.94,2.3-.31,3.81-4.43,6.75-1.04,.48,11.63-2.97,22.37-7.93,32.61-5.25,10.85-12.13,20.57-21.39,28.53-5.7,4.9-12.01,8.2-19.35,9.75-9.82,2.07-17.65-2.73-19.79-12.61-.77-3.55-1.34-7.23-.34-10.87,.31-1.12,.78-2.3,2.25-2.27,1.15,.02,1.69,.93,2.15,1.82,.84,1.64,1.14,3.47,1.71,5.2,2.23,6.8,6.93,9.53,13.9,7.72,10.69-2.77,17.41-10.62,23.41-19.13,4.42-6.28,7.38-13.36,10.11-20.52,.15-1,3.28-.84,1.06-2.76-.63-4.45,.53-8.85,.26-13.33-.53-8.69-3.55-15.7-11.65-19.85-.75-.38-1.33-.97-1.71-1.73-.2-2.98,1.53-4.67,3.16-5.83-4.36,1.77-8.34,6-13.86,7.13-3.63,.9-7.01,2.38-10.33,4.09-1.68,.86-3.31,2.22-5.44,1.32Z"/><path class="e" d="M166.07,64.5c3.31,1.9,6.62,3.81,9.94,5.71-2.37,5.66-6.27,10.43-9.11,15.83-1.86,3.54-3.74,7.02-4.6,10.96-.23,1.17-.77,2.21-1.36,3.23-3.43,9.28-5.8,18.77-5.57,28.77,.03,.49,.02,.98,0,1.47-.28,9.34,1.86,18.03,7.21,25.77,3.9,5.64,9.16,9.42,15.82,11.25,1.88,.52,3.97,.54,5.47,2.08,8.85,2.07,16.63-1.26,24.26-4.98,1.54-.75,2.93-1.37,4.56-1.39,.65,.98,.13,1.46-.6,2.03-10.56,8.16-22.51,13.18-35.83,13.1-13.07-.08-22.55-7.05-28.22-18.79-6.58-13.64-7.03-27.94-4.56-42.68,2.61-15.63,8.77-29.81,16.43-43.46,1.76-3.13,4.1-5.95,6.17-8.9Z"/><path class="g" d="M183.86,169.58c-12.22-.64-20.23-7.34-25.48-17.87-3.44-6.89-5.17-14.14-3.72-21.89,2.75,1.78,6.4,2.41,7.76,5.99,1.54,5.35,1.58,10.96,4.11,16.21,4.26,8.85,10.76,13.95,20.49,15.02,1.13,.12,2.25,.37,3.37,.56-2.17,.66-4.35,1.31-6.52,1.97Z"/><path class="g" d="M246.81,45.33c-4.05-14.55-16.24-22.28-29.99-19.01,3.12-3.76,7.83-1.58,11.55-3.11,13.15,.77,22.93,9.11,26.98,23-.8,3.45-2.66,2-4.16,.75-1.53-1.28-2.19-3.21-2.81-5.12-.48,1.19,.53,3.06-1.57,3.5Z"/><path class="j" d="M236.85,77.93c1.84,2.15-.19,1.96-1.38,2.27-1.75,.94-3.68,.53-5.53,.71-1.46,.06-2.91-.03-4.36-.05-7.34-.59-14.7-.75-22.05-1.02-2.96-.43-6.18,.45-8.8-1.73-1.87-3.83-3.79-7.65-2.37-12.12,3.65-1.63,5.56-5.72,9.6-6.82,3.08-.94,4.87,1.72,7.29,2.61,.6,.32,1.19,.66,1.77,1,5.58,3.63,12.01,5.65,17.56,9.33,2.82,1.85,6.07,3.1,8.28,5.82Z"/><path class="d" d="M192.36,65.98c1.1,4.13,2.2,8.25,3.3,12.38-.68,3.71-4.34,4.09-6.65,5.98-4.84,2.9-9.39,6.26-14.21,9.2-3.55,1.77-6.54,4.46-10.07,6.19-1.4,.69-3.36,2.73-4.62-.39l1.28-2.22c3.82-8.32,9-15.85,13.66-23.68,.7-1.17,1.85-1.88,3.02-2.54,1.49-2.18,2.98-4.35,4.48-6.53,3.51-.91,6.63,.58,9.83,1.61Z"/><path class="h" d="M209.21,62.68c-2.42-1.17-4.84-2.34-7.25-3.51-1.92-2.45-3.6-5.03-4.24-8.15,4.08-3.87,9.35-5.64,14.26-8.04,5.45-1.6,9.58-5.75,15.18-8.08-.47,3.23-2.54,5.08-3.99,7.24-2.96,7.99-7.73,14.76-13.96,20.53Z"/><path class="e" d="M174.54,54.12c1.82-3.23,4.74-5.48,7.24-8.09,.13,3.05,.26,6.1,.39,9.14-2.61,.15-5.13-.4-7.63-1.05Z"/><path class="g" d="M211.98,42.98c-4.51,3.12-8.94,6.36-14.26,8.04-.45-.53-.91-1.07-1.36-1.6,5.17-2.24,9.73-5.96,15.63-6.44Z"/><path class="g" d="M178.06,70.91c-5.96,8.48-10.11,18.12-16.67,26.22-.45-3.18,1.31-5.8,2.69-8.24,3.65-6.41,6.6-13.32,11.93-18.67,.68,.23,1.36,.46,2.05,.69Z"/><path class="g" d="M230.15,79.8c1.81-.4,3.59-.23,5.33,.39-2.79,12.48-9.26,22.87-18.28,31.74-4.52,4.44-9.44,8.2-15.93,9.6-7.58,1.64-13.03-1.38-15.11-8.93-.61-2.19-1.17-4.4-1.87-7.02-3.26,4.57-2.46,13.14,1.27,18.76,3.35,5.05,8.46,6.8,14.77,5.69,13.19-2.3,22.26-10.66,29.98-20.63,10.85-14.01,17.97-29.66,18.82-47.7,.03-.61,.42-1.2,.65-1.8,3.64,1,3.7,3.97,4.32,7.4-.31-3.86-.6-7.24-.38-10.6,.13-2.08,.19-4.37,3.12-4.65,2.6,12.57,.47,24.76-3.17,36.75-5.61,18.48-15.65,34.33-29.73,47.46-7.47,6.96-16.02,12.34-26.4,14.13-6.52,1.12-12.04-1-17.15-4.78-1.93-3.84-1.55-4.78,2.27-5,3.07-.18,6.16,.04,9.22,.05-7.67-4.06-16.18-7-18.4-16.89,.66-14.95,5.51-28.14,16.41-38.76,2.61,1.16,2.86,3.93,3.97,6.05,3.3,6.3,6.32,12.74,9.12,19.41,.14,.53,1.07-.26,.45,0-.08,.03-.11-.07-.21-.23-1.28-2.15-.7-4.52-.73-6.79-.1-6.12,.09-12.25-.04-18.37-.05-2.32-.04-4.66,1.52-6.63,7.33,.68,14.74,.09,22.02,1.44,1.52,.68,1.73,2.15,2.4,4.57,.28-2.32,.44-3.83,1.79-4.65Z"/><path class="h" d="M174.51,123.54c2.27,9.26,10.38,12.04,17.57,15.83,.86,.45,1.81,.72,2.68,1.14,.25,.12,.37,.5,.76,1.07-4.12,1.02-8.16,.46-12.06,.07-3.84-.39-4.16,1.02-3.1,3.97-1.26,3.62-.17,7.36-.68,12.41-2.52-4.93-5.05-8.68-6.41-12.82-1.83-5.54-5.51-8.25-10.85-9.39-2.26-2.41-6.32-2.5-7.76-5.99l-.05,.04c2.3-2.84,5.37-1.15,8.11-1.4,3.88,.98,5.73-.34,5.21-4.51-.14-1.15-.14-2.33-.05-3.49,.15-1.9-.48-4.68,2.08-4.92,2.18-.2,2.76,2.47,3.53,4.27,.51,1.19-.22,2.73,1.02,3.72Z"/><path class="h" d="M256.82,52.05c-3.26,2-1.77,5.29-1.81,7.94-.04,2.58-.19,5.06-.61,7.88-1.68-2.9-3.16-5.44-4.63-7.98-3.86-.67-5.37,3.53-8.95,4.1,1.96-6.27,8.74-11.02,6.01-18.66,1.43-1.8-.72-4.16,1.1-6.04,1.13,1.83,2.27,3.55,3.09,5.61,.59,1.49,1.85,4.53,4.36,1.3,2.14-.29,3.33-2.75,6.04-2.44-.88,3.18-2.75,5.73-4.58,8.29Z"/><path class="g" d="M209.21,62.68c4.65-6.84,9.31-13.69,13.96-20.53,14.08,6.25,15.26,18.29,14.1,31.39-.13,1.47-.28,2.93-.41,4.39-3.12-1.19-5.92-2.96-8.61-4.9-3.24-3.64-5.3-8.65-11.12-9.27-2.31-.24-4.67,.35-6.93-.47-.33-.2-.65-.4-.98-.61Z"/><path class="g" d="M162.73,129.48c-2.67,.9-5.46-.92-8.11,.38-1.65-8.57,1.24-16.56,3.33-24.6,.51-1.97,.51-4.3,2.16-5.92,1.73,1.54,2.78-.07,4.14-.77,3.53-1.84,6.27-5.02,10.28-6.02,.9,1.37,.12,2.57-.45,3.73-4.75,9.6-8.42,19.55-9.76,30.25-.15,1.18-.42,2.31-1.58,2.95Z"/><path class="h" d="M203.94,78.45c-.09,11.26-.17,22.52-.26,33.77l-.86,.09c-4.52-9-9.05-18.01-13.57-27.01-.68-.41-.92-.98-.63-1.74,2.35-1.73,4.7-3.46,7.04-5.19,2.76,.03,5.52,.05,8.28,.08Z"/><path class="e" d="M210.19,63.29c9.44-2.56,15.27,.58,18.06,9.74-5.84-3.58-12.62-5.41-18.06-9.74Z"/><path class="e" d="M230.15,79.8c-.86,2.25,.25,4.99-1.91,7.25-1.95-2.1-1.06-5.02-2.28-7.17,1.4-.03,2.8-.05,4.19-.08Z"/><path class="e" d="M188.62,83.55c.21,.58,.42,1.16,.63,1.74-3.01,6.42-8.08,11.63-10.35,18.52-2.12,6.45-4.69,12.75-4.38,19.72-1.52-2.57-3.03-5.14-4.73-8.02-1.37,3.26-.44,6.36-.5,9.35-.14,6.31-.02,6.31-6.55,4.62,1.16-13.2,5.83-25.27,11.8-36.93,4.49-3.32,8.91-6.75,14.09-9Z"/></g></g></g></g></svg>